<svg width="19" height="26" viewBox="0 0 19 26" version="1.1" xmlns="http://www.w3.org/2000/svg" xmlns:xlink="http://www.w3.org/1999/xlink" xmlns:figma="http://www.figma.com/figma/ns">
<title>Vector</title>
<desc>Created using Figma</desc>
<g id="Canvas" transform="translate(-24836 -4379)" figma:type="canvas">
<g id="Vector" style="mix-blend-mode:normal;" figma:type="vector">
<use xlink:href="#path0_stroke" transform="translate(24837 4380.17)" fill="#333333" style="mix-blend-mode:normal;"/>
</g>
</g>
<defs>
<path id="path0_stroke" d="M 16.6136 0L 16.9525 0.367624L 16.5087 -0.488871L 16.6136 0ZM 10.947 1.216L 10.8421 0.727129L 10.7742 0.74678L 10.947 1.216ZM 7.4697 2.496L 7.29698 2.02678L 7.18026 2.08829L 7.4697 2.496ZM 4.76515 4.416L 4.47571 4.00829L 4.3908 4.08454L 4.76515 4.416ZM 1.93182 7.616L 1.55747 7.28454L 1.45944 7.45211L 1.93182 7.616ZM 0 13.184L -0.472377 13.0201L -0.498041 13.2282L 0 13.184ZM 0.579545 19.712L 0.0815043 19.7562L 0.227078 20.0666L 0.579545 19.712ZM 3.73485 22.848L 3.38238 23.2026L 3.65387 23.3414L 3.73485 22.848ZM 10.7538 24L 10.6728 24.4934L 11.0659 24.3906L 10.7538 24ZM 17 19.008L 17.3122 19.3986L 17.4996 18.988L 17 19.008ZM 16.7424 12.568L 17.242 12.548L 17.1051 12.2238L 16.7424 12.568ZM 9.01515 15.616L 9.47193 15.4126L 9.43642 15.3467L 9.01515 15.616ZM 16.5087 -0.488871L 10.8421 0.727129L 11.0519 1.70487L 16.7185 0.488871L 16.5087 -0.488871ZM 10.7742 0.74678L 7.29698 2.02678L 7.64242 2.96522L 11.1197 1.68522L 10.7742 0.74678ZM 7.18026 2.08829L 4.47571 4.00829L 5.05459 4.82371L 7.75914 2.90371L 7.18026 2.08829ZM 4.3908 4.08454L 1.55747 7.28454L 2.30617 7.94746L 5.1395 4.74746L 4.3908 4.08454ZM 1.45944 7.45211L -0.472377 13.0201L 0.472377 13.3479L 2.40419 7.77989L 1.45944 7.45211ZM -0.498041 13.2282L 0.0815043 19.7562L 1.07759 19.6678L 0.498041 13.1398L -0.498041 13.2282ZM 0.227078 20.0666L 3.38238 23.2026L 4.08732 22.4934L 0.932012 19.3574L 0.227078 20.0666ZM 3.65387 23.3414L 10.6728 24.4934L 10.8348 23.5066L 3.81583 22.3546L 3.65387 23.3414ZM 11.0659 24.3906L 17.3122 19.3986L 16.6878 18.6174L 10.4416 23.6094L 11.0659 24.3906ZM 17.4996 18.988L 17.242 12.548L 16.2428 12.588L 16.5004 19.028L 17.4996 18.988ZM 17.1051 12.2238L 12.4043 7.27177L 11.679 7.96023L 16.3798 12.9122L 17.1051 12.2238ZM 12.5413 7.63428L 12.6701 4.11428L 11.6708 4.07772L 11.542 7.59772L 12.5413 7.63428ZM 12.5094 4.46362L 16.9525 0.367624L 16.2747 -0.367624L 11.8316 3.72838L 12.5094 4.46362ZM 10.4868 1.4115L 11.7103 4.2915L 12.6307 3.9005L 11.4072 1.0205L 10.4868 1.4115ZM 10.5801 0.876278L 6.3945 5.39628L 7.12823 6.07572L 11.3138 1.55572L 10.5801 0.876278ZM 7.24983 5.84279L 7.95816 2.60279L 6.98123 2.38921L 6.2729 5.62921L 7.24983 5.84279ZM 12.2094 7.14496L 6.92907 5.26496L 6.59366 6.20704L 11.874 8.08704L 12.2094 7.14496ZM 5.5434 9.67648L 7.21764 5.94048L 6.30509 5.53152L 4.63084 9.26752L 5.5434 9.67648ZM 5.34062 9.04103L 2.18532 7.18503L 1.67831 8.04697L 4.83362 9.90297L 5.34062 9.04103ZM 5.21605 9.95509L 12.1706 8.09909L 11.9127 7.13291L 4.9582 8.98891L 5.21605 9.95509ZM 4.7924 9.0681L -0.294723 12.7801L 0.294723 13.5879L 5.38184 9.8759L 4.7924 9.0681ZM 4.6295 9.27056L 0.12192 19.5106L 1.03717 19.9134L 5.54475 9.67344L 4.6295 9.27056ZM 8.79676 15.1662L 0.361149 19.2622L 0.797942 20.1618L 9.23355 16.0658L 8.79676 15.1662ZM 9.43642 15.3467L 5.50839 9.20267L 4.66586 9.74133L 8.59389 15.8853L 9.43642 15.3467ZM 4.85478 9.91474L 13.5139 14.4587L 13.9785 13.5733L 5.31946 9.02926L 4.85478 9.91474ZM 14.2294 13.8873L 12.5248 7.48732L 11.5585 7.74468L 13.2631 14.1447L 14.2294 13.8873ZM 17.4189 18.735L 14.1651 13.743L 13.3273 14.289L 16.5811 19.281L 17.4189 18.735ZM 13.282 13.8304L 10.7062 20.2716L 11.6347 20.6429L 14.2105 14.2016L 13.282 13.8304ZM 10.6739 20.3989L 10.2572 23.9416L 11.2504 24.0584L 11.667 20.5157L 10.6739 20.3989ZM 8.55837 15.8194L 10.7137 20.6606L 11.6272 20.2539L 9.47193 15.4126L 8.55837 15.8194Z"/>
</defs>
</svg>
